<svg width="61" height="26" viewBox="0 0 61 26" fill="none" xmlns="http://www.w3.org/2000/svg">
<g clip-path="url(#clip0_0_170)">
<path d="M0.54147 20.2228H12.7557V16.7985H4.90946V0.944268H0.54147V20.2228Z" fill="black"/>
<path d="M20.7876 17.5525C18.5766 17.5525 17.3363 15.9347 17.3363 13.2385V13.0228C17.3363 10.3265 18.6306 8.76262 20.7876 8.76262C22.9716 8.76262 24.2388 10.3804 24.2388 13.0767V13.2654C24.2388 15.9347 22.9716 17.5525 20.7876 17.5525ZM20.7606 20.5184C24.9938 20.5184 28.2024 17.6873 28.2024 13.2385V13.0228C28.2024 8.6278 25.0208 5.79669 20.7876 5.79669C16.5544 5.79669 13.3458 8.68173 13.3458 13.1036V13.3193C13.3458 17.7143 16.5544 20.5184 20.7606 20.5184Z" fill="black"/>
<path d="M36.2705 25.4257C40.9081 25.4257 43.6853 23.2956 43.7122 19.1164V6.12025H39.8296V8.22336C39.0207 6.79432 37.6456 5.79669 35.3537 5.79669C31.8485 5.79669 29.1523 8.6278 29.1523 12.6722V12.861C29.1523 17.0402 31.8755 19.6017 35.2998 19.6017C37.3759 19.6017 39.0477 18.3614 39.8296 16.9863V19.1164C39.8296 21.3273 38.6432 22.5676 36.2705 22.5676C34.2752 22.5676 33.3854 21.7587 33.1428 20.5184H29.2601C29.6376 23.4304 31.7137 25.4257 36.2705 25.4257ZM36.4592 16.6627C34.5179 16.6627 33.1428 15.2068 33.1428 12.861V12.6453C33.1428 10.3265 34.3561 8.76262 36.5401 8.76262C38.6702 8.76262 39.9374 10.2186 39.9374 12.6183V12.807C39.9374 15.2068 38.5084 16.6627 36.4592 16.6627Z" fill="black"/>
<path d="M52.9267 17.5525C50.7158 17.5525 49.4755 15.9347 49.4755 13.2385V13.0228C49.4755 10.3265 50.7697 8.76262 52.9267 8.76262C55.1107 8.76262 56.378 10.3804 56.378 13.0767V13.2654C56.378 15.9347 55.1107 17.5525 52.9267 17.5525ZM52.8998 20.5184C57.133 20.5184 60.3416 17.6873 60.3416 13.2385V13.0228C60.3416 8.6278 57.1599 5.79669 52.9267 5.79669C48.6936 5.79669 45.485 8.68173 45.485 13.1036V13.3193C45.485 17.7143 48.6936 20.5184 52.8998 20.5184Z" fill="black"/>
</g>
<defs>
<clipPath id="clip0_0_170">
<rect width="60.5063" height="25.9312" fill="white" transform="scale(1.00265)"/>
</clipPath>
</defs>
</svg>
