<svg width="24" height="24" viewBox="0 0 24 24" fill="none" xmlns="http://www.w3.org/2000/svg">
<path d="M21.5928 7.20303C21.4789 6.78044 21.2563 6.39504 20.9472 6.0852C20.638 5.77537 20.2531 5.5519 19.8308 5.43704C18.2648 5.00704 11.9998 5.00004 11.9998 5.00004C11.9998 5.00004 5.73582 4.99304 4.16883 5.40404C3.74675 5.52418 3.36265 5.75081 3.05339 6.06217C2.74414 6.37353 2.52011 6.75916 2.40283 7.18203C1.98983 8.74803 1.98583 11.996 1.98583 11.996C1.98583 11.996 1.98183 15.26 2.39183 16.81C2.62183 17.667 3.29683 18.344 4.15483 18.575C5.73682 19.005 11.9848 19.012 11.9848 19.012C11.9848 19.012 18.2498 19.019 19.8158 18.609C20.2383 18.4944 20.6235 18.2714 20.9334 17.9622C21.2433 17.653 21.4672 17.2682 21.5828 16.846C21.9968 15.281 21.9998 12.034 21.9998 12.034C21.9998 12.034 22.0198 8.76903 21.5928 7.20303ZM9.99581 15.005L10.0008 9.00503L15.2078 12.01L9.99581 15.005Z" fill="black"/>
</svg>
