<svg width="1140" height="54" viewBox="0 0 1140 54" fill="none" xmlns="http://www.w3.org/2000/svg">
<g clip-path="url(#clip0_5092_9931)">
<g filter="url(#filter0_d_5092_9931)">
<path d="M75.5029 35.581H79.4969V28.7341H81.2335L85.4755 35.581H89.7424L85.0538 28.0395C87.1377 27.4193 88.7005 26.0052 88.7005 23.3261V23.2268C88.7005 19.5554 86.0461 17.8436 81.8537 17.8436H75.5029V35.581ZM79.4969 26.0052V20.9198H81.7544C83.6894 20.9198 84.781 21.54 84.781 23.3509V23.4501C84.781 25.1619 83.7639 26.0052 81.7544 26.0052H79.4969Z" fill="black"/>
<path d="M96.5982 35.8539C100.146 35.8539 102.378 34.2911 102.8 31.4878H99.4014C99.1781 32.5793 98.3595 33.2988 96.6974 33.2988C94.7376 33.2988 93.5717 32.0584 93.4724 29.9002H102.825V28.9079C102.825 24.2688 99.848 22.3091 96.4989 22.3091C92.7282 22.3091 89.8257 24.9635 89.8257 29.0567V29.2551C89.8257 33.398 92.6786 35.8539 96.5982 35.8539ZM93.522 27.6923C93.7949 25.8565 94.8864 24.7898 96.4989 24.7898C98.2107 24.7898 99.203 25.7325 99.327 27.6923H93.522Z" fill="black"/>
<path d="M104.534 35.581H108.106V16.7273H104.534V35.581Z" fill="black"/>
<path d="M114.96 35.8539C117.094 35.8539 118.408 34.8616 119.078 33.5468V35.581H122.65V22.6067H119.078V30.2226C119.078 32.1328 117.887 33.0754 116.374 33.0754C114.837 33.0754 114.116 32.232 114.116 30.4707V22.6067H110.544V30.9668C110.544 34.3654 112.43 35.8539 114.96 35.8539Z" fill="black"/>
<path d="M125.089 35.581H128.686V27.9156C128.686 26.1543 129.802 25.2611 131.192 25.2611C132.457 25.2611 133.226 26.0053 133.226 27.6675V35.581H136.799V27.9156C136.799 26.1543 137.915 25.2611 139.304 25.2611C140.594 25.2611 141.338 26.0053 141.338 27.6675V35.581H144.911V27.2706C144.911 23.8223 143.05 22.3091 140.643 22.3091C139.006 22.3091 137.32 23.0036 136.277 24.5666C135.657 23.0285 134.367 22.3091 132.656 22.3091C130.72 22.3091 129.331 23.3758 128.686 24.5913V22.6067H125.089V35.581Z" fill="black"/>
<path d="M153.217 35.8539C156.765 35.8539 158.998 34.2911 159.419 31.4878H156.02C155.797 32.5793 154.978 33.2988 153.316 33.2988C151.356 33.2988 150.191 32.0584 150.092 29.9002H159.444V28.9079C159.444 24.2688 156.467 22.3091 153.118 22.3091C149.347 22.3091 146.444 24.9635 146.444 29.0567V29.2551C146.444 33.398 149.297 35.8539 153.217 35.8539ZM150.141 27.6923C150.414 25.8565 151.506 24.7898 153.118 24.7898C154.83 24.7898 155.822 25.7325 155.946 27.6923H150.141Z" fill="black"/>
<path fill-rule="evenodd" clip-rule="evenodd" d="M61.7575 18.9048L61.5163 18.4741C61.2053 17.9533 60.7666 17.5204 60.2416 17.2165L48.682 10.5495C48.1585 10.2459 47.5644 10.0854 46.9592 10.0844H46.4596C45.8545 10.0854 45.2603 10.2459 44.7369 10.5495L33.1773 17.2338C32.6553 17.5356 32.2216 17.9693 31.9197 18.4914L31.6785 18.922C31.3749 19.4454 31.2145 20.0396 31.2134 20.6447V33.996C31.2145 34.6011 31.3749 35.1953 31.6785 35.7187L31.9197 36.1494C32.2294 36.6654 32.6613 37.0973 33.1773 37.407L44.7541 44.074C45.2749 44.3839 45.8709 44.5448 46.4768 44.5391H46.9592C47.5644 44.538 48.1585 44.3776 48.682 44.074L60.2416 37.3898C60.7687 37.0947 61.2041 36.6595 61.4991 36.1322L61.7575 35.7015C62.0575 35.1765 62.2177 34.5833 62.2227 33.9788V20.6275C62.2217 20.0224 62.0612 19.4282 61.7575 18.9048ZM46.4596 13.5298H46.9592L57.0545 19.3526L46.718 25.3133L36.3816 19.3526L46.4596 13.5298ZM48.4408 40.2324L58.5188 34.4095L58.7772 33.9789V22.3332L48.4408 28.311V40.2324Z" fill="black"/>
</g>
<g filter="url(#filter1_d_5092_9931)">
<path d="M265.685 23.9658C265.685 21.9996 263.778 19.9139 260.473 19.9139C256.759 19.9139 252.687 22.6323 252.056 28.0645C251.42 33.5565 254.839 35.9832 258.275 35.9832C261.709 35.9832 263.517 34.645 265.353 32.8511C263.768 30.8544 261.723 31.7836 261.336 31.9782C260.909 32.1925 260.347 32.489 259.207 32.489C257.876 32.489 256.526 31.8868 256.526 29.4155C265.035 28.6 265.685 25.9331 265.685 23.9658ZM261.468 24.295C261.412 24.9008 261.164 25.9495 256.858 26.5261C257.766 23.3014 259.498 23.0624 260.298 23.0624C261.048 23.0624 261.526 23.6435 261.468 24.295ZM247.055 24.8188C247.055 24.8188 245.225 30.558 245.083 31.0396C245.034 30.558 243.695 20.249 243.695 20.249C240.578 20.249 238.91 22.4636 238.032 24.8165C238.032 24.8165 235.805 30.5721 235.625 31.0537C235.614 30.6025 235.283 24.8763 235.283 24.8763C235.094 21.9984 232.467 20.256 230.338 20.256L232.898 35.8742C236.168 35.8636 237.919 33.6526 238.842 31.3044C238.842 31.3044 240.8 26.2261 240.881 25.9953C240.901 26.2155 242.29 35.8742 242.29 35.8742C245.562 35.8742 247.328 33.8037 248.278 31.5399L252.87 20.256C249.637 20.256 247.934 22.4648 247.055 24.8188ZM277.704 19.8928C275.693 19.8928 274.142 20.9861 272.837 22.6019L272.839 22.5901L273.999 13.2057C271.321 13.2057 269.132 15.5375 268.716 18.9964L266.678 35.7523C268.224 35.7523 269.861 35.3036 270.744 34.1681C271.535 35.184 272.71 35.9937 274.45 35.9937C278.967 35.9937 282.073 30.7431 282.073 25.8136C282.073 21.3153 279.884 19.8928 277.704 19.8928ZM277.29 27.9427C276.821 30.6986 275.289 32.557 273.806 32.557C272.311 32.557 271.679 31.8961 271.679 31.8961C271.958 29.4871 272.143 28.0095 272.688 26.737C273.232 25.4645 274.517 23.4338 275.862 23.4338C277.17 23.4338 277.758 25.1879 277.29 27.9427ZM293.396 20.2573H290.234L290.249 20.092C290.465 18.0274 290.959 16.9435 292.56 16.7771C293.653 16.6647 294.147 16.0964 294.262 15.4824C294.352 15.0008 294.658 13.2982 294.658 13.2982C288.314 13.2619 286.326 16.0003 285.819 20.1623L285.807 20.256L285.745 20.2584C284.715 20.2584 283.584 21.4243 283.386 22.9053L283.317 23.4502H285.426L283.656 38.1075L283.119 40.7416L283.337 40.7486C286.298 40.6361 288.203 38.3009 288.624 34.9005L290.006 23.4502H290.998C291.968 23.4502 293.108 22.4777 293.319 20.8525L293.396 20.2573ZM309.808 19.9854C306.164 19.9854 302.729 22.6675 301.673 26.8869C300.619 31.1052 302.222 36.0863 307.578 36.0863C312.935 36.0863 316.013 30.8943 316.013 26.5835C316.013 22.2702 313.098 19.9854 309.808 19.9854ZM311.285 27.8173C311.096 29.7307 310.253 32.6214 307.947 32.6214C305.631 32.6214 305.961 29.2293 306.185 27.6193C306.425 25.8933 307.395 23.4502 309.458 23.4502C311.323 23.4502 311.498 25.6566 311.285 27.8173ZM334.009 24.8188C334.009 24.8188 332.179 30.558 332.038 31.0396C331.988 30.558 330.649 20.249 330.649 20.249C327.532 20.249 325.865 22.4636 324.986 24.8165C324.986 24.8165 322.76 30.5721 322.58 31.0537C322.569 30.6025 322.238 24.8763 322.238 24.8763C322.049 21.9984 319.42 20.256 317.293 20.256L319.852 35.8742C323.122 35.8636 324.874 33.6526 325.797 31.3044C325.797 31.3044 327.755 26.2261 327.836 25.9953C327.856 26.2155 329.243 35.8742 329.243 35.8742C332.516 35.8742 334.282 33.8037 335.232 31.5399L339.825 20.256C336.59 20.256 334.888 22.4648 334.009 24.8188ZM296.373 13.2982L293.717 34.713L293.71 34.7095L293.171 37.3576L293.388 37.3646C296.247 37.3295 298.275 34.8208 298.657 31.6571L300.191 19.3655C300.656 15.6218 298.424 13.2982 296.373 13.2982Z" fill="black"/>
</g>
<g filter="url(#filter2_d_5092_9931)">
<path d="M455.503 35.581H459.497V28.7341H461.233L465.476 35.581H469.742L465.054 28.0395C467.138 27.4193 468.701 26.0052 468.701 23.3261V23.2268C468.701 19.5554 466.046 17.8436 461.854 17.8436H455.503V35.581ZM459.497 26.0052V20.9198H461.754C463.689 20.9198 464.781 21.54 464.781 23.3509V23.4501C464.781 25.1619 463.764 26.0052 461.754 26.0052H459.497Z" fill="black"/>
<path d="M476.598 35.8539C480.146 35.8539 482.378 34.2911 482.8 31.4878H479.401C479.178 32.5793 478.359 33.2988 476.697 33.2988C474.738 33.2988 473.572 32.0584 473.472 29.9002H482.825V28.9079C482.825 24.2688 479.848 22.3091 476.499 22.3091C472.728 22.3091 469.826 24.9635 469.826 29.0567V29.2551C469.826 33.398 472.679 35.8539 476.598 35.8539ZM473.522 27.6923C473.795 25.8565 474.886 24.7898 476.499 24.7898C478.211 24.7898 479.203 25.7325 479.327 27.6923H473.522Z" fill="black"/>
<path d="M484.535 35.581H488.107V16.7273H484.535V35.581Z" fill="black"/>
<path d="M494.96 35.8539C497.094 35.8539 498.408 34.8616 499.078 33.5468V35.581H502.65V22.6067H499.078V30.2226C499.078 32.1328 497.887 33.0754 496.374 33.0754C494.837 33.0754 494.116 32.232 494.116 30.4707V22.6067H490.544V30.9668C490.544 34.3654 492.43 35.8539 494.96 35.8539Z" fill="black"/>
<path d="M505.089 35.581H508.687V27.9156C508.687 26.1543 509.803 25.2611 511.192 25.2611C512.458 25.2611 513.227 26.0053 513.227 27.6675V35.581H516.799V27.9156C516.799 26.1543 517.915 25.2611 519.304 25.2611C520.594 25.2611 521.339 26.0053 521.339 27.6675V35.581H524.911V27.2706C524.911 23.8223 523.05 22.3091 520.644 22.3091C519.007 22.3091 517.32 23.0036 516.278 24.5666C515.658 23.0285 514.368 22.3091 512.656 22.3091C510.721 22.3091 509.332 23.3758 508.687 24.5913V22.6067H505.089V35.581Z" fill="black"/>
<path d="M533.217 35.8539C536.765 35.8539 538.998 34.2911 539.419 31.4878H536.02C535.797 32.5793 534.978 33.2988 533.316 33.2988C531.356 33.2988 530.191 32.0584 530.092 29.9002H539.444V28.9079C539.444 24.2688 536.467 22.3091 533.118 22.3091C529.347 22.3091 526.444 24.9635 526.444 29.0567V29.2551C526.444 33.398 529.297 35.8539 533.217 35.8539ZM530.141 27.6923C530.414 25.8565 531.506 24.7898 533.118 24.7898C534.83 24.7898 535.822 25.7325 535.946 27.6923H530.141Z" fill="black"/>
<path fill-rule="evenodd" clip-rule="evenodd" d="M441.758 18.9048L441.516 18.4741C441.205 17.9533 440.767 17.5204 440.242 17.2165L428.682 10.5495C428.158 10.2459 427.564 10.0854 426.959 10.0844H426.46C425.854 10.0854 425.26 10.2459 424.737 10.5495L413.177 17.2338C412.655 17.5356 412.222 17.9693 411.92 18.4914L411.679 18.922C411.375 19.4454 411.214 20.0396 411.213 20.6447V33.996C411.214 34.6011 411.375 35.1953 411.679 35.7187L411.92 36.1494C412.229 36.6654 412.661 37.0973 413.177 37.407L424.754 44.074C425.275 44.3839 425.871 44.5448 426.477 44.5391H426.959C427.564 44.538 428.158 44.3776 428.682 44.074L440.242 37.3898C440.769 37.0947 441.204 36.6595 441.499 36.1322L441.758 35.7015C442.058 35.1765 442.218 34.5833 442.223 33.9788V20.6275C442.222 20.0224 442.061 19.4282 441.758 18.9048ZM426.46 13.5298H426.959L437.055 19.3526L426.718 25.3133L416.382 19.3526L426.46 13.5298ZM428.441 40.2324L438.519 34.4095L438.777 33.9789V22.3332L428.441 28.311V40.2324Z" fill="black"/>
</g>
<g filter="url(#filter3_d_5092_9931)">
<path d="M645.684 23.9658C645.684 21.9996 643.778 19.9139 640.472 19.9139C636.759 19.9139 632.686 22.6323 632.056 28.0645C631.419 33.5565 634.839 35.9832 638.274 35.9832C641.708 35.9832 643.516 34.645 645.353 32.8511C643.767 30.8544 641.722 31.7836 641.336 31.9782C640.908 32.1925 640.347 32.489 639.207 32.489C637.876 32.489 636.526 31.8868 636.526 29.4155C645.035 28.6 645.684 25.9331 645.684 23.9658ZM641.467 24.295C641.412 24.9008 641.164 25.9495 636.857 26.5261C637.766 23.3014 639.497 23.0624 640.298 23.0624C641.048 23.0624 641.526 23.6435 641.467 24.295ZM627.055 24.8188C627.055 24.8188 625.224 30.558 625.083 31.0396C625.033 30.558 623.694 20.249 623.694 20.249C620.577 20.249 618.91 22.4636 618.031 24.8165C618.031 24.8165 615.805 30.5721 615.624 31.0537C615.614 30.6025 615.282 24.8763 615.282 24.8763C615.093 21.9984 612.466 20.256 610.337 20.256L612.898 35.8742C616.168 35.8636 617.919 33.6526 618.842 31.3044C618.842 31.3044 620.8 26.2261 620.881 25.9953C620.901 26.2155 622.289 35.8742 622.289 35.8742C625.562 35.8742 627.328 33.8037 628.278 31.5399L632.87 20.256C629.636 20.256 627.933 22.4648 627.055 24.8188ZM657.704 19.8928C655.692 19.8928 654.142 20.9861 652.836 22.6019L652.839 22.5901L653.999 13.2057C651.32 13.2057 649.131 15.5375 648.715 18.9964L646.678 35.7523C648.223 35.7523 649.86 35.3036 650.744 34.1681C651.535 35.184 652.71 35.9937 654.45 35.9937C658.967 35.9937 662.072 30.7431 662.072 25.8136C662.072 21.3153 659.883 19.8928 657.704 19.8928ZM657.289 27.9427C656.82 30.6986 655.289 32.557 653.805 32.557C652.31 32.557 651.679 31.8961 651.679 31.8961C651.958 29.4871 652.143 28.0095 652.688 26.737C653.231 25.4645 654.517 23.4338 655.862 23.4338C657.17 23.4338 657.758 25.1879 657.289 27.9427ZM673.396 20.2573H670.233L670.249 20.092C670.464 18.0274 670.959 16.9435 672.559 16.7771C673.652 16.6647 674.147 16.0964 674.262 15.4824C674.352 15.0008 674.658 13.2982 674.658 13.2982C668.314 13.2619 666.326 16.0003 665.818 20.1623L665.806 20.256L665.744 20.2584C664.714 20.2584 663.584 21.4243 663.386 22.9053L663.317 23.4502H665.426L663.655 38.1075L663.119 40.7416L663.336 40.7486C666.297 40.6361 668.203 38.3009 668.623 34.9005L670.006 23.4502H670.997C671.967 23.4502 673.108 22.4777 673.319 20.8525L673.396 20.2573ZM689.807 19.9854C686.163 19.9854 682.729 22.6675 681.673 26.8869C680.618 31.1052 682.222 36.0863 687.577 36.0863C692.935 36.0863 696.013 30.8943 696.013 26.5835C696.013 22.2702 693.098 19.9854 689.807 19.9854ZM691.285 27.8173C691.096 29.7307 690.252 32.6214 687.947 32.6214C685.631 32.6214 685.96 29.2293 686.184 27.6193C686.425 25.8933 687.394 23.4502 689.458 23.4502C691.322 23.4502 691.498 25.6566 691.285 27.8173ZM714.008 24.8188C714.008 24.8188 712.178 30.558 712.038 31.0396C711.987 30.558 710.648 20.249 710.648 20.249C707.531 20.249 705.865 22.4636 704.985 24.8165C704.985 24.8165 702.76 30.5721 702.579 31.0537C702.568 30.6025 702.237 24.8763 702.237 24.8763C702.048 21.9984 699.42 20.256 697.292 20.256L699.851 35.8742C703.122 35.8636 704.873 33.6526 705.797 31.3044C705.797 31.3044 707.755 26.2261 707.835 25.9953C707.855 26.2155 709.243 35.8742 709.243 35.8742C712.516 35.8742 714.281 33.8037 715.231 31.5399L719.825 20.256C716.59 20.256 714.887 22.4648 714.008 24.8188ZM676.372 13.2982L673.717 34.713L673.71 34.7095L673.171 37.3576L673.388 37.3646C676.247 37.3295 678.275 34.8208 678.657 31.6571L680.19 19.3655C680.656 15.6218 678.424 13.2982 676.372 13.2982Z" fill="black"/>
</g>
<g filter="url(#filter4_d_5092_9931)">
<path d="M835.503 35.581H839.497V28.7341H841.234L845.476 35.581H849.743L845.054 28.0395C847.138 27.4193 848.701 26.0052 848.701 23.3261V23.2268C848.701 19.5554 846.046 17.8436 841.854 17.8436H835.503V35.581ZM839.497 26.0052V20.9198H841.755C843.69 20.9198 844.781 21.54 844.781 23.3509V23.4501C844.781 25.1619 843.764 26.0052 841.755 26.0052H839.497Z" fill="black"/>
<path d="M856.598 35.8539C860.145 35.8539 862.378 34.2911 862.8 31.4878H859.401C859.178 32.5793 858.359 33.2988 856.697 33.2988C854.737 33.2988 853.571 32.0584 853.472 29.9002H862.825V28.9079C862.825 24.2688 859.848 22.3091 856.499 22.3091C852.728 22.3091 849.825 24.9635 849.825 29.0567V29.2551C849.825 33.398 852.678 35.8539 856.598 35.8539ZM853.522 27.6923C853.795 25.8565 854.886 24.7898 856.499 24.7898C858.21 24.7898 859.203 25.7325 859.327 27.6923H853.522Z" fill="black"/>
<path d="M864.534 35.581H868.106V16.7273H864.534V35.581Z" fill="black"/>
<path d="M874.96 35.8539C877.094 35.8539 878.408 34.8616 879.078 33.5468V35.581H882.65V22.6067H879.078V30.2226C879.078 32.1328 877.887 33.0754 876.374 33.0754C874.837 33.0754 874.116 32.232 874.116 30.4707V22.6067H870.544V30.9668C870.544 34.3654 872.43 35.8539 874.96 35.8539Z" fill="black"/>
<path d="M885.089 35.581H888.687V27.9156C888.687 26.1543 889.803 25.2611 891.192 25.2611C892.457 25.2611 893.226 26.0053 893.226 27.6675V35.581H896.799V27.9156C896.799 26.1543 897.915 25.2611 899.304 25.2611C900.594 25.2611 901.338 26.0053 901.338 27.6675V35.581H904.911V27.2706C904.911 23.8223 903.05 22.3091 900.643 22.3091C899.006 22.3091 897.32 23.0036 896.278 24.5666C895.658 23.0285 894.368 22.3091 892.656 22.3091C890.72 22.3091 889.331 23.3758 888.687 24.5913V22.6067H885.089V35.581Z" fill="black"/>
<path d="M913.217 35.8539C916.765 35.8539 918.998 34.2911 919.419 31.4878H916.02C915.797 32.5793 914.978 33.2988 913.316 33.2988C911.356 33.2988 910.191 32.0584 910.092 29.9002H919.444V28.9079C919.444 24.2688 916.467 22.3091 913.118 22.3091C909.347 22.3091 906.444 24.9635 906.444 29.0567V29.2551C906.444 33.398 909.297 35.8539 913.217 35.8539ZM910.141 27.6923C910.414 25.8565 911.506 24.7898 913.118 24.7898C914.83 24.7898 915.822 25.7325 915.946 27.6923H910.141Z" fill="black"/>
<path fill-rule="evenodd" clip-rule="evenodd" d="M821.758 18.9048L821.516 18.4741C821.205 17.9533 820.767 17.5204 820.242 17.2165L808.682 10.5495C808.158 10.2459 807.564 10.0854 806.959 10.0844H806.46C805.854 10.0854 805.26 10.2459 804.737 10.5495L793.177 17.2338C792.655 17.5356 792.222 17.9693 791.92 18.4914L791.679 18.922C791.375 19.4454 791.214 20.0396 791.213 20.6447V33.996C791.214 34.6011 791.375 35.1953 791.679 35.7187L791.92 36.1494C792.229 36.6654 792.661 37.0973 793.177 37.407L804.754 44.074C805.275 44.3839 805.871 44.5448 806.477 44.5391H806.959C807.564 44.538 808.158 44.3776 808.682 44.074L820.242 37.3898C820.769 37.0947 821.204 36.6595 821.499 36.1322L821.758 35.7015C822.058 35.1765 822.218 34.5833 822.223 33.9788V20.6275C822.222 20.0224 822.061 19.4282 821.758 18.9048ZM806.46 13.5298H806.959L817.055 19.3526L806.718 25.3133L796.382 19.3526L806.46 13.5298ZM808.441 40.2324L818.519 34.4095L818.777 33.9789V22.3332L808.441 28.311V40.2324Z" fill="black"/>
</g>
<g filter="url(#filter5_d_5092_9931)">
<path d="M1025.68 23.9658C1025.68 21.9996 1023.78 19.9139 1020.47 19.9139C1016.76 19.9139 1012.69 22.6323 1012.06 28.0645C1011.42 33.5565 1014.84 35.9832 1018.27 35.9832C1021.71 35.9832 1023.52 34.645 1025.35 32.8511C1023.77 30.8544 1021.72 31.7836 1021.34 31.9782C1020.91 32.1925 1020.35 32.489 1019.21 32.489C1017.88 32.489 1016.53 31.8868 1016.53 29.4155C1025.04 28.6 1025.68 25.9331 1025.68 23.9658ZM1021.47 24.295C1021.41 24.9008 1021.16 25.9495 1016.86 26.5261C1017.77 23.3014 1019.5 23.0624 1020.3 23.0624C1021.05 23.0624 1021.53 23.6435 1021.47 24.295ZM1007.05 24.8188C1007.05 24.8188 1005.22 30.558 1005.08 31.0396C1005.03 30.558 1003.69 20.249 1003.69 20.249C1000.58 20.249 998.91 22.4636 998.031 24.8165C998.031 24.8165 995.805 30.5721 995.625 31.0537C995.614 30.6025 995.282 24.8763 995.282 24.8763C995.094 21.9984 992.467 20.256 990.338 20.256L992.898 35.8742C996.168 35.8636 997.919 33.6526 998.842 31.3044C998.842 31.3044 1000.8 26.2261 1000.88 25.9953C1000.9 26.2155 1002.29 35.8742 1002.29 35.8742C1005.56 35.8742 1007.33 33.8037 1008.28 31.5399L1012.87 20.256C1009.64 20.256 1007.93 22.4648 1007.05 24.8188ZM1037.7 19.8928C1035.69 19.8928 1034.14 20.9861 1032.84 22.6019L1032.84 22.5901L1034 13.2057C1031.32 13.2057 1029.13 15.5375 1028.72 18.9964L1026.68 35.7523C1028.22 35.7523 1029.86 35.3036 1030.74 34.1681C1031.53 35.184 1032.71 35.9937 1034.45 35.9937C1038.97 35.9937 1042.07 30.7431 1042.07 25.8136C1042.07 21.3153 1039.88 19.8928 1037.7 19.8928ZM1037.29 27.9427C1036.82 30.6986 1035.29 32.557 1033.81 32.557C1032.31 32.557 1031.68 31.8961 1031.68 31.8961C1031.96 29.4871 1032.14 28.0095 1032.69 26.737C1033.23 25.4645 1034.52 23.4338 1035.86 23.4338C1037.17 23.4338 1037.76 25.1879 1037.29 27.9427ZM1053.4 20.2573H1050.23L1050.25 20.092C1050.46 18.0274 1050.96 16.9435 1052.56 16.7771C1053.65 16.6647 1054.15 16.0964 1054.26 15.4824C1054.35 15.0008 1054.66 13.2982 1054.66 13.2982C1048.31 13.2619 1046.33 16.0003 1045.82 20.1623L1045.81 20.256L1045.74 20.2584C1044.71 20.2584 1043.58 21.4243 1043.39 22.9053L1043.32 23.4502H1045.43L1043.66 38.1075L1043.12 40.7416L1043.34 40.7486C1046.3 40.6361 1048.2 38.3009 1048.62 34.9005L1050.01 23.4502H1051C1051.97 23.4502 1053.11 22.4777 1053.32 20.8525L1053.4 20.2573ZM1069.81 19.9854C1066.16 19.9854 1062.73 22.6675 1061.67 26.8869C1060.62 31.1052 1062.22 36.0863 1067.58 36.0863C1072.94 36.0863 1076.01 30.8943 1076.01 26.5835C1076.01 22.2702 1073.1 19.9854 1069.81 19.9854ZM1071.28 27.8173C1071.1 29.7307 1070.25 32.6214 1067.95 32.6214C1065.63 32.6214 1065.96 29.2293 1066.18 27.6193C1066.42 25.8933 1067.39 23.4502 1069.46 23.4502C1071.32 23.4502 1071.5 25.6566 1071.28 27.8173ZM1094.01 24.8188C1094.01 24.8188 1092.18 30.558 1092.04 31.0396C1091.99 30.558 1090.65 20.249 1090.65 20.249C1087.53 20.249 1085.86 22.4636 1084.99 24.8165C1084.99 24.8165 1082.76 30.5721 1082.58 31.0537C1082.57 30.6025 1082.24 24.8763 1082.24 24.8763C1082.05 21.9984 1079.42 20.256 1077.29 20.256L1079.85 35.8742C1083.12 35.8636 1084.87 33.6526 1085.8 31.3044C1085.8 31.3044 1087.75 26.2261 1087.84 25.9953C1087.86 26.2155 1089.24 35.8742 1089.24 35.8742C1092.52 35.8742 1094.28 33.8037 1095.23 31.5399L1099.83 20.256C1096.59 20.256 1094.89 22.4648 1094.01 24.8188ZM1056.37 13.2982L1053.72 34.713L1053.71 34.7095L1053.17 37.3576L1053.39 37.3646C1056.25 37.3295 1058.28 34.8208 1058.66 31.6571L1060.19 19.3655C1060.66 15.6218 1058.42 13.2982 1056.37 13.2982Z" fill="black"/>
</g>
</g>
<defs>
<filter id="filter0_d_5092_9931" x="0" y="-6" width="210" height="73.7833" filterUnits="userSpaceOnUse" color-interpolation-filters="sRGB">
<feFlood flood-opacity="0" result="BackgroundImageFix"/>
<feColorMatrix in="SourceAlpha" type="matrix" values="0 0 0 0 0 0 0 0 0 0 0 0 0 0 0 0 0 0 127 0" result="hardAlpha"/>
<feOffset dx="10" dy="4"/>
<feGaussianBlur stdDeviation="5"/>
<feComposite in2="hardAlpha" operator="out"/>
<feColorMatrix type="matrix" values="0 0 0 0 0 0 0 0 0 0 0 0 0 0 0 0 0 0 0.25 0"/>
<feBlend mode="normal" in2="BackgroundImageFix" result="effect1_dropShadow_5092_9931"/>
<feBlend mode="normal" in="SourceGraphic" in2="effect1_dropShadow_5092_9931" result="shape"/>
</filter>
<filter id="filter1_d_5092_9931" x="190" y="-2.15833" width="210" height="66.1" filterUnits="userSpaceOnUse" color-interpolation-filters="sRGB">
<feFlood flood-opacity="0" result="BackgroundImageFix"/>
<feColorMatrix in="SourceAlpha" type="matrix" values="0 0 0 0 0 0 0 0 0 0 0 0 0 0 0 0 0 0 127 0" result="hardAlpha"/>
<feOffset dx="10" dy="4"/>
<feGaussianBlur stdDeviation="5"/>
<feComposite in2="hardAlpha" operator="out"/>
<feColorMatrix type="matrix" values="0 0 0 0 0 0 0 0 0 0 0 0 0 0 0 0 0 0 0.25 0"/>
<feBlend mode="normal" in2="BackgroundImageFix" result="effect1_dropShadow_5092_9931"/>
<feBlend mode="normal" in="SourceGraphic" in2="effect1_dropShadow_5092_9931" result="shape"/>
</filter>
<filter id="filter2_d_5092_9931" x="380" y="-6" width="210" height="73.7833" filterUnits="userSpaceOnUse" color-interpolation-filters="sRGB">
<feFlood flood-opacity="0" result="BackgroundImageFix"/>
<feColorMatrix in="SourceAlpha" type="matrix" values="0 0 0 0 0 0 0 0 0 0 0 0 0 0 0 0 0 0 127 0" result="hardAlpha"/>
<feOffset dx="10" dy="4"/>
<feGaussianBlur stdDeviation="5"/>
<feComposite in2="hardAlpha" operator="out"/>
<feColorMatrix type="matrix" values="0 0 0 0 0 0 0 0 0 0 0 0 0 0 0 0 0 0 0.25 0"/>
<feBlend mode="normal" in2="BackgroundImageFix" result="effect1_dropShadow_5092_9931"/>
<feBlend mode="normal" in="SourceGraphic" in2="effect1_dropShadow_5092_9931" result="shape"/>
</filter>
<filter id="filter3_d_5092_9931" x="570" y="-2.15833" width="210" height="66.1" filterUnits="userSpaceOnUse" color-interpolation-filters="sRGB">
<feFlood flood-opacity="0" result="BackgroundImageFix"/>
<feColorMatrix in="SourceAlpha" type="matrix" values="0 0 0 0 0 0 0 0 0 0 0 0 0 0 0 0 0 0 127 0" result="hardAlpha"/>
<feOffset dx="10" dy="4"/>
<feGaussianBlur stdDeviation="5"/>
<feComposite in2="hardAlpha" operator="out"/>
<feColorMatrix type="matrix" values="0 0 0 0 0 0 0 0 0 0 0 0 0 0 0 0 0 0 0.25 0"/>
<feBlend mode="normal" in2="BackgroundImageFix" result="effect1_dropShadow_5092_9931"/>
<feBlend mode="normal" in="SourceGraphic" in2="effect1_dropShadow_5092_9931" result="shape"/>
</filter>
<filter id="filter4_d_5092_9931" x="760" y="-6" width="210" height="73.7833" filterUnits="userSpaceOnUse" color-interpolation-filters="sRGB">
<feFlood flood-opacity="0" result="BackgroundImageFix"/>
<feColorMatrix in="SourceAlpha" type="matrix" values="0 0 0 0 0 0 0 0 0 0 0 0 0 0 0 0 0 0 127 0" result="hardAlpha"/>
<feOffset dx="10" dy="4"/>
<feGaussianBlur stdDeviation="5"/>
<feComposite in2="hardAlpha" operator="out"/>
<feColorMatrix type="matrix" values="0 0 0 0 0 0 0 0 0 0 0 0 0 0 0 0 0 0 0.25 0"/>
<feBlend mode="normal" in2="BackgroundImageFix" result="effect1_dropShadow_5092_9931"/>
<feBlend mode="normal" in="SourceGraphic" in2="effect1_dropShadow_5092_9931" result="shape"/>
</filter>
<filter id="filter5_d_5092_9931" x="950" y="-2.15833" width="210" height="66.1" filterUnits="userSpaceOnUse" color-interpolation-filters="sRGB">
<feFlood flood-opacity="0" result="BackgroundImageFix"/>
<feColorMatrix in="SourceAlpha" type="matrix" values="0 0 0 0 0 0 0 0 0 0 0 0 0 0 0 0 0 0 127 0" result="hardAlpha"/>
<feOffset dx="10" dy="4"/>
<feGaussianBlur stdDeviation="5"/>
<feComposite in2="hardAlpha" operator="out"/>
<feColorMatrix type="matrix" values="0 0 0 0 0 0 0 0 0 0 0 0 0 0 0 0 0 0 0.25 0"/>
<feBlend mode="normal" in2="BackgroundImageFix" result="effect1_dropShadow_5092_9931"/>
<feBlend mode="normal" in="SourceGraphic" in2="effect1_dropShadow_5092_9931" result="shape"/>
</filter>
<clipPath id="clip0_5092_9931">
<rect width="1140" height="53.7833" fill="white"/>
</clipPath>
</defs>
</svg>
