<svg width="24" height="24" viewBox="0 0 24 24" fill="none" xmlns="http://www.w3.org/2000/svg">
<path fill-rule="evenodd" clip-rule="evenodd" d="M16.0001 3.24273H8.00008C5.23867 3.24273 3.0001 5.48131 3.0001 8.24272V16.2427C3.0001 19.0041 5.23867 21.2427 8.00008 21.2427H16.0001C18.7615 21.2427 21.0001 19.0041 21.0001 16.2427V8.24272C21.0001 5.48131 18.7615 3.24273 16.0001 3.24273ZM19.2501 16.2427C19.2446 18.0353 17.7927 19.4872 16.0001 19.4927H8.00008C6.20744 19.4872 4.75558 18.0353 4.75009 16.2427V8.24272C4.75558 6.45007 6.20744 4.99822 8.00008 4.99273H16.0001C17.7927 4.99822 19.2446 6.45007 19.2501 8.24272V16.2427ZM16.7501 8.49272C17.3024 8.49272 17.7501 8.045 17.7501 7.49272C17.7501 6.94044 17.3024 6.49272 16.7501 6.49272C16.1978 6.49272 15.7501 6.94044 15.7501 7.49272C15.7501 8.045 16.1978 8.49272 16.7501 8.49272ZM12.0001 7.74272C9.5148 7.74272 7.50009 9.75744 7.50009 12.2427C7.50009 14.728 9.5148 16.7427 12.0001 16.7427C14.4854 16.7427 16.5001 14.728 16.5001 12.2427C16.5028 11.0484 16.0295 9.90229 15.185 9.0578C14.3405 8.21331 13.1944 7.74006 12.0001 7.74272ZM9.25008 12.2427C9.25008 13.7615 10.4813 14.9927 12.0001 14.9927C13.5189 14.9927 14.7501 13.7615 14.7501 12.2427C14.7501 10.7239 13.5189 9.49272 12.0001 9.49272C10.4813 9.49272 9.25008 10.7239 9.25008 12.2427Z" fill="black"/>
</svg>
