<svg width="24" height="24" viewBox="0 0 24 24" fill="none" xmlns="http://www.w3.org/2000/svg">
<path fill-rule="evenodd" clip-rule="evenodd" d="M4.49958 3.24273C3.67116 3.24273 2.99959 3.9143 2.99959 4.74273V19.7427C2.99959 20.5711 3.67116 21.2427 4.49958 21.2427H19.4996C20.328 21.2427 20.9995 20.5711 20.9995 19.7427V4.74273C20.9995 3.9143 20.328 3.24273 19.4996 3.24273H4.49958ZM8.52033 7.24544C8.52596 8.20169 7.81019 8.79091 6.96081 8.78669C6.16065 8.78247 5.46315 8.14544 5.46737 7.24685C5.47159 6.40169 6.13956 5.72248 7.00722 5.74217C7.88753 5.76186 8.52596 6.40732 8.52033 7.24544ZM12.2793 10.0045H9.75928H9.75787V18.5643H12.4213V18.3646C12.4213 17.9847 12.421 17.6047 12.4207 17.2246C12.4199 16.2108 12.419 15.1959 12.4242 14.1824C12.4256 13.9363 12.4368 13.6804 12.5001 13.4455C12.7377 12.568 13.5267 12.0013 14.407 12.1406C14.9723 12.2291 15.3463 12.5568 15.5038 13.0898C15.6009 13.423 15.6445 13.7816 15.6487 14.129C15.6601 15.1766 15.6585 16.2242 15.6569 17.2719C15.6563 17.6417 15.6557 18.0117 15.6557 18.3815V18.5629H18.3276V18.3576C18.3276 17.9056 18.3274 17.4537 18.3271 17.0018C18.3266 15.8723 18.326 14.7428 18.329 13.6129C18.3304 13.1024 18.2756 12.599 18.1504 12.1054C17.9634 11.3713 17.5767 10.7638 16.9481 10.3251C16.5023 10.0129 16.0129 9.81182 15.4659 9.78932C15.4036 9.78673 15.3408 9.78334 15.2777 9.77993C14.998 9.76481 14.7137 9.74945 14.4463 9.80338C13.6813 9.95666 13.0092 10.3068 12.5015 10.9241C12.4425 10.9949 12.3848 11.0668 12.2987 11.1741L12.2793 11.1984V10.0045ZM5.68122 18.5671H8.332V10.01H5.68122V18.5671Z" fill="black"/>
</svg>
